<svg width="44" height="44" viewBox="0 0 44 44" fill="none" xmlns="http://www.w3.org/2000/svg">
<mask id="mask0_1_306" style="mask-type:alpha" maskUnits="userSpaceOnUse" x="0" y="0" width="44" height="45">
<circle cx="22" cy="22.0001" r="22" fill="#D9D9D9"/>
</mask>
<g mask="url(#mask0_1_306)">
<path d="M53.7263 -0.463013H-10.1895V44.4633H53.7263V-0.463013Z" fill="#00923F"/>
<path fill-rule="evenodd" clip-rule="evenodd" d="M21.7685 4.99231L-4.75659 22.0001L21.7685 39.0079L48.2935 22.0001L21.7685 4.99231Z" fill="#F8C300"/>
<path d="M21.7448 33.2086C27.9095 33.2086 32.907 28.1904 32.907 22.0001C32.907 15.8098 27.9095 10.7916 21.7448 10.7916C15.58 10.7916 10.5825 15.8098 10.5825 22.0001C10.5825 28.1904 15.58 33.2086 21.7448 33.2086Z" fill="#28166F"/>
<path fill-rule="evenodd" clip-rule="evenodd" d="M22.8761 24.4179L23.0109 24.7599L23.3759 24.783L23.0946 25.0179L23.1848 25.3741L22.8761 25.1771L22.5667 25.3741L22.6575 25.0179L22.3756 24.783L22.7406 24.7599L22.8761 24.4179ZM31.2209 25.6142L31.336 25.9056L31.6472 25.9255L31.4069 26.1257L31.4842 26.4286L31.2209 26.2611L30.9569 26.4286L31.0343 26.1257L30.7946 25.9255L31.1059 25.9056L31.2209 25.6142ZM30.0263 26.5429L30.1618 26.8843L30.5268 26.9081L30.2449 27.1423L30.3357 27.4985L30.0263 27.3021L29.717 27.4985L29.8077 27.1423L29.5259 26.9081L29.8915 26.8843L30.0263 26.5429ZM29.5834 25.3408L29.7438 25.7458L30.1765 25.774L29.8429 26.0519L29.9503 26.4736L29.5834 26.2406L29.2171 26.4736L29.3245 26.0519L28.9909 25.774L29.4236 25.7458L29.5834 25.3408ZM29.4977 27.4343L29.6326 27.7758L29.9982 27.7989L29.7163 28.0338L29.8071 28.39L29.4977 28.193L29.1884 28.39L29.2791 28.0338L28.9973 27.7989L29.3622 27.7758L29.4977 27.4343ZM28.4527 27.9863L28.5678 28.277L28.879 28.2976L28.6393 28.4972L28.7167 28.8007L28.4527 28.6332L28.1894 28.8007L28.2667 28.4972L28.0264 28.2976L28.3377 28.277L28.4527 27.9863ZM27.3783 28.9894L27.5138 29.3309L27.8787 29.3546L27.5969 29.5889L27.6876 29.9451L27.3783 29.748L27.0696 29.9451L27.1597 29.5889L26.8785 29.3546L27.2434 29.3309L27.3783 28.9894ZM27.3655 30.2448L27.4805 30.5362L27.7918 30.5561L27.5521 30.7563L27.6295 31.0599L27.3655 30.8924L27.1022 31.0599L27.1795 30.7563L26.9392 30.5561L27.2505 30.5362L27.3655 30.2448ZM27.3482 27.9754L27.4633 28.2661L27.7746 28.286L27.5342 28.4863L27.6116 28.7898L27.3482 28.6223L27.0843 28.7898L27.1616 28.4863L26.9213 28.286L27.2332 28.2661L27.3482 27.9754ZM26.0316 28.2353L26.1473 28.5267L26.4585 28.5466L26.2182 28.7468L26.2956 29.0504L26.0316 28.8829L25.7682 29.0504L25.8456 28.7468L25.6053 28.5466L25.9165 28.5267L26.0316 28.2353ZM25.1873 17.478L25.3477 17.883L25.7804 17.9106L25.4467 18.1885L25.5541 18.6102L25.1873 18.3772L24.821 18.6102L24.9284 18.1885L24.5948 17.9106L25.0275 17.883L25.1873 17.478ZM25.0108 29.2616L25.1457 29.6036L25.5113 29.6267L25.2294 29.8616L25.3202 30.2172L25.0108 30.0208L24.7015 30.2172L24.7923 29.8616L24.5104 29.6267L24.8753 29.6036L25.0108 29.2616ZM24.3896 20.8847L24.5053 21.1755L24.8165 21.196L24.5762 21.3956L24.6536 21.6992L24.3896 21.5317L24.1262 21.6992L24.2036 21.3956L23.9633 21.196L24.2745 21.1755L24.3896 20.8847ZM24.0937 27.9529L24.2087 28.2443L24.52 28.2642L24.2803 28.4638L24.3576 28.7674L24.0937 28.5999L23.8303 28.7674L23.9077 28.4638L23.6673 28.2642L23.9786 28.2443L24.0937 27.9529ZM21.8528 23.4571L21.9876 23.7985L22.3532 23.8223L22.0714 24.0565L22.1621 24.4127L21.8528 24.2163L21.5434 24.4127L21.6342 24.0565L21.3523 23.8223L21.7173 23.7985L21.8528 23.4571ZM21.7876 26.6366L21.9474 27.0416L22.3807 27.0692L22.0464 27.3471L22.1538 27.7694L21.7876 27.5364L21.4213 27.7694L21.5287 27.3471L21.1944 27.0692L21.6278 27.0416L21.7876 26.6366ZM21.824 30.6909L21.8854 30.8462L22.0515 30.8571L21.9237 30.9636L21.9646 31.126L21.824 31.0361L21.6834 31.126L21.7243 30.9636L21.5965 30.8571L21.7626 30.8462L21.824 30.6909ZM21.119 25.3324L21.2053 25.5506L21.438 25.5654L21.2583 25.7149L21.3165 25.9421L21.119 25.8163L20.9222 25.9421L20.9797 25.7149L20.8001 25.5654L21.0334 25.5506L21.119 25.3324ZM20.3034 24.6245L20.4185 24.9159L20.7298 24.9358L20.4894 25.1354L20.5668 25.439L20.3034 25.2715L20.0395 25.439L20.1168 25.1354L19.8765 24.9358L20.1884 24.9159L20.3034 24.6245ZM17.4042 21.9482L17.5391 22.2903L17.904 22.3134L17.6228 22.5483L17.7129 22.9045L17.4042 22.7074L17.0949 22.9045L17.1856 22.5483L16.9038 22.3134L17.2687 22.2903L17.4042 21.9482ZM17.0776 27.6096L17.2374 28.0145L17.6708 28.0428L17.3365 28.3207L17.4439 28.7423L17.0776 28.5094L16.7107 28.7423L16.8188 28.3207L16.4845 28.0428L16.9172 28.0145L17.0776 27.6096ZM15.8517 25.3748L15.9872 25.7162L16.3522 25.74L16.0703 25.9742L16.1611 26.3304L15.8517 26.1334L15.543 26.3304L15.6331 25.9742L15.3519 25.74L15.7169 25.7162L15.8517 25.3748ZM15.4478 26.634L15.5628 26.9254L15.8741 26.9453L15.6338 27.1449L15.7111 27.4485L15.4478 27.2809L15.1838 27.4485L15.2611 27.1449L15.0208 26.9453L15.3321 26.9254L15.4478 26.634ZM14.6149 23.7696L14.7012 23.9872L14.9339 24.0026L14.7543 24.1522L14.8124 24.3787L14.6149 24.2536L14.4181 24.3787L14.4756 24.1522L14.296 24.0026L14.5293 23.9872L14.6149 23.7696ZM13.5904 24.2215L13.7502 24.6264L14.1835 24.654L13.8492 24.9319L13.9566 25.3543L13.5904 25.1213L13.2241 25.3543L13.3315 24.9319L12.9972 24.654L13.4306 24.6264L13.5904 24.2215ZM12.6706 19.5581L12.8311 19.9631L13.2638 19.9907L12.9301 20.2686L13.0375 20.6909L12.6706 20.4579L12.3044 20.6909L12.4118 20.2686L12.0781 19.9907L12.5108 19.9631L12.6706 19.5581ZM12.4188 25.2869L12.5543 25.6289L12.9193 25.652L12.6374 25.8869L12.7281 26.2425L12.4188 26.0461L12.1094 26.2425L12.2002 25.8869L11.9183 25.652L12.2839 25.6289L12.4188 25.2869Z" fill="white"/>
<path fill-rule="evenodd" clip-rule="evenodd" d="M15.0809 18.5376C21.7205 18.5376 27.8072 20.99 32.4903 25.0372C32.645 24.4917 32.7594 23.9294 32.8303 23.3544C27.9746 19.3996 21.7953 17.0249 15.0809 17.0249C13.917 17.0249 12.7691 17.0981 11.641 17.2367C11.4 17.7534 11.1967 18.2905 11.035 18.8457C12.3549 18.6429 13.7061 18.5376 15.0809 18.5376Z" fill="white"/>
<path fill-rule="evenodd" clip-rule="evenodd" d="M12.2092 17.9554C12.2181 18.0652 12.2501 18.148 12.3038 18.2044C12.3575 18.2609 12.4278 18.2853 12.5153 18.2782C12.6029 18.2705 12.6694 18.2346 12.7128 18.1691C12.7569 18.1043 12.7736 18.017 12.7646 17.9073C12.755 17.7975 12.7231 17.7147 12.6694 17.6583C12.6151 17.6018 12.5441 17.5774 12.4559 17.5851C12.3683 17.5921 12.3031 17.6287 12.2597 17.6936C12.2169 17.7577 12.1996 17.845 12.2092 17.9554ZM12.0008 17.9734C11.9868 17.8123 12.02 17.6807 12.0993 17.5787C12.1785 17.4766 12.2923 17.4195 12.4406 17.4067C12.5888 17.3938 12.7109 17.4311 12.8068 17.5177C12.9027 17.605 12.9576 17.7289 12.9711 17.8893C12.9851 18.0504 12.9519 18.182 12.872 18.284C12.7927 18.3861 12.6783 18.4438 12.5307 18.4567C12.3818 18.4695 12.2603 18.4323 12.1644 18.345C12.0692 18.2577 12.0142 18.1338 12.0008 17.9734ZM13.6217 17.7873L13.8627 17.7789C13.9151 17.777 13.9528 17.7654 13.9771 17.743C14.0007 17.7212 14.0116 17.6871 14.0103 17.6416C14.0091 17.5979 13.9956 17.5652 13.9713 17.544C13.9464 17.5222 13.9106 17.5119 13.8633 17.5138L13.6128 17.5222L13.6217 17.7873ZM13.4357 18.3565L13.4025 17.3566L13.8857 17.3406C13.9937 17.3367 14.0749 17.3572 14.1286 17.4022C14.1829 17.4471 14.211 17.5177 14.2142 17.6133C14.2161 17.6743 14.2053 17.7256 14.181 17.7674C14.1573 17.8091 14.1215 17.838 14.0742 17.8546C14.1177 17.8688 14.1497 17.8912 14.1688 17.922C14.188 17.9535 14.2002 18.0023 14.2053 18.069L14.2136 18.1871V18.191C14.2168 18.2506 14.2308 18.2866 14.2558 18.2981L14.2564 18.3289L14.0321 18.3366C14.0244 18.3225 14.0186 18.3058 14.0142 18.2853C14.0097 18.2648 14.0059 18.2404 14.0046 18.2115L13.9982 18.1062C13.9937 18.0446 13.9809 18.0029 13.9592 17.9824C13.9375 17.9612 13.8991 17.9516 13.8448 17.9535L13.6275 17.9605L13.6409 18.3495L13.4357 18.3565ZM14.9058 18.1319L15.0701 18.1351C15.1653 18.137 15.235 18.1133 15.2784 18.0639C15.3219 18.0151 15.3449 17.9336 15.3468 17.8219C15.3487 17.7096 15.3308 17.6274 15.2918 17.5742C15.2529 17.5209 15.1915 17.4933 15.1071 17.492L14.9179 17.4882L14.9058 18.1319ZM14.7013 18.3084L14.7204 17.3085L15.1103 17.3155C15.2637 17.3187 15.3769 17.3624 15.4504 17.4465C15.5239 17.5305 15.559 17.657 15.5558 17.8258C15.5539 17.9169 15.5386 17.9971 15.5098 18.0664C15.4804 18.1358 15.4389 18.191 15.3858 18.2327C15.3455 18.2635 15.3002 18.2853 15.249 18.2981C15.1985 18.311 15.1276 18.3167 15.0362 18.3148L14.7013 18.3084ZM15.9655 18.3309L16.0192 17.3322L16.7421 17.3714L16.7325 17.5447L16.2116 17.5164L16.2007 17.7295L16.6763 17.7552L16.6673 17.9259L16.1911 17.9002L16.1777 18.1569L16.7223 18.1865L16.7127 18.3713L15.9655 18.3309ZM17.1384 18.4008L17.2438 17.406L17.5455 17.4381L17.6618 18.2166L17.9367 17.4805L18.239 17.5126L18.1335 18.5074L17.9424 18.4868L18.0274 17.6846L17.7411 18.4656L17.5327 18.4432L17.4145 17.6191L17.3288 18.4214L17.1384 18.4008ZM19.7781 18.7423L19.9865 17.7642L20.694 17.9163L20.6576 18.0863L20.1482 17.9766L20.1034 18.1852L20.57 18.2853L20.5342 18.4528L20.0676 18.352L20.0139 18.6036L20.5476 18.7185L20.5093 18.8995L19.7781 18.7423ZM22.4146 18.8039L22.6064 18.8559C22.6581 18.8693 22.6984 18.8687 22.7278 18.8533C22.7572 18.8372 22.7789 18.8052 22.7917 18.7557C22.8045 18.7102 22.8019 18.6723 22.7853 18.6421C22.7687 18.6126 22.7374 18.5914 22.6914 18.5792L22.49 18.5247L22.4146 18.8039ZM22.3667 18.9784L22.2746 19.3218L22.0765 19.2685L22.3354 18.3026L22.7636 18.4182C22.8646 18.4457 22.9336 18.4932 22.972 18.5593C23.0097 18.6261 23.0148 18.7108 22.9873 18.8129C22.9611 18.9123 22.9151 18.9823 22.8492 19.0221C22.7841 19.0625 22.7035 19.0696 22.6096 19.0446L22.3667 18.9784ZM23.5645 19.1357L23.7946 19.2069C23.8444 19.2223 23.8847 19.2236 23.9141 19.2101C23.9441 19.1973 23.9652 19.1684 23.9786 19.1248C23.9914 19.0837 23.9895 19.0484 23.9735 19.0202C23.9575 18.9913 23.9262 18.9701 23.8815 18.956L23.6418 18.8822L23.5645 19.1357ZM23.204 19.6132L23.4961 18.6569L23.9582 18.7994C24.0617 18.8315 24.132 18.8777 24.1685 18.9374C24.2049 18.9977 24.2087 19.0734 24.1806 19.1652C24.1627 19.2236 24.1359 19.2685 24.0994 19.3C24.063 19.3314 24.0202 19.3475 23.9703 19.3475C24.0068 19.3751 24.0298 19.4065 24.0381 19.4425C24.0457 19.4784 24.0413 19.5285 24.0247 19.5933L23.994 19.7075C23.994 19.7082 23.9933 19.7095 23.9927 19.7114C23.9767 19.7685 23.978 19.807 23.9978 19.8263L23.9889 19.8558L23.7741 19.789C23.7716 19.7736 23.7709 19.7557 23.7735 19.7345C23.776 19.714 23.7805 19.6896 23.7882 19.662L23.8163 19.5606C23.8323 19.5009 23.8335 19.4572 23.8201 19.4309C23.8061 19.404 23.7735 19.3821 23.7211 19.3661L23.5133 19.3019L23.3996 19.6735L23.204 19.6132ZM24.7207 19.61C24.683 19.7133 24.6772 19.8019 24.7022 19.8763C24.7265 19.9501 24.7801 20.0021 24.8626 20.0323C24.9457 20.0625 25.0205 20.058 25.0876 20.0175C25.1547 19.9771 25.2071 19.9052 25.2448 19.8019C25.2819 19.6986 25.2883 19.61 25.2633 19.5362C25.2378 19.4617 25.1835 19.4091 25.1004 19.3789C25.0185 19.3488 24.9438 19.3539 24.8773 19.3937C24.8108 19.4341 24.7584 19.506 24.7207 19.61ZM24.5245 19.5375C24.5801 19.386 24.6651 19.2807 24.7795 19.2217C24.8946 19.1633 25.0217 19.1594 25.1617 19.2108C25.3011 19.2621 25.3963 19.3475 25.4468 19.4669C25.4973 19.5869 25.4947 19.7223 25.4391 19.8738C25.3841 20.0252 25.2991 20.1305 25.1835 20.1889C25.0684 20.2479 24.9406 20.2518 24.8012 20.2004C24.6613 20.1491 24.5667 20.0637 24.5168 19.9444C24.467 19.825 24.4695 19.6889 24.5245 19.5375ZM26.3678 20.7126C26.3141 20.7441 26.2611 20.7614 26.208 20.7646C26.1556 20.7678 26.1 20.7569 26.0418 20.7319C25.914 20.6767 25.829 20.5881 25.7875 20.4649C25.7459 20.341 25.7561 20.2069 25.8175 20.0618C25.8801 19.9148 25.9696 19.8147 26.0859 19.7608C26.2023 19.7063 26.3269 19.7075 26.4586 19.764C26.5736 19.8134 26.6554 19.8808 26.7046 19.9675C26.7539 20.0535 26.7647 20.1478 26.7372 20.2505L26.5449 20.1684C26.5538 20.1157 26.5455 20.0689 26.5199 20.0284C26.495 19.988 26.4535 19.9559 26.3959 19.9309C26.3192 19.8982 26.247 19.9007 26.1793 19.9386C26.1115 19.9758 26.0565 20.0445 26.0144 20.144C25.9715 20.2441 25.9613 20.332 25.983 20.4084C26.0048 20.4848 26.0553 20.54 26.1345 20.574C26.1946 20.599 26.2521 20.6029 26.3071 20.5849C26.3627 20.5663 26.4081 20.5284 26.4439 20.4713L26.2361 20.3821L26.3026 20.2248L26.6823 20.3872L26.4707 20.8852L26.3448 20.8313L26.3678 20.7126ZM27.315 20.6863L27.5311 20.7928C27.5784 20.8159 27.6174 20.823 27.6487 20.8146C27.68 20.8063 27.7056 20.7819 27.726 20.7402C27.7446 20.7017 27.7484 20.667 27.7369 20.6362C27.7254 20.6054 27.6979 20.5797 27.6557 20.5586L27.4307 20.4482L27.315 20.6863ZM26.8842 21.1009L27.3221 20.203L27.7561 20.4161C27.8539 20.4642 27.9159 20.5207 27.9421 20.5855C27.9689 20.6503 27.9612 20.7261 27.919 20.8121C27.8922 20.8673 27.8583 20.9071 27.8181 20.9327C27.7772 20.9578 27.7318 20.9668 27.6826 20.9591C27.7145 20.9924 27.7318 21.0264 27.735 21.0637C27.7369 21.1003 27.7247 21.149 27.6979 21.21L27.65 21.3185C27.65 21.3191 27.6493 21.3204 27.648 21.3217C27.6231 21.3756 27.6186 21.4141 27.6353 21.4366L27.6218 21.4635L27.4199 21.3647C27.4199 21.3486 27.4224 21.3307 27.4282 21.3108C27.4339 21.2902 27.4422 21.2671 27.4544 21.2414L27.4978 21.1458C27.5228 21.0893 27.5304 21.0463 27.5215 21.0175C27.5119 20.9886 27.4825 20.9623 27.4339 20.9385L27.239 20.8422L27.0683 21.1914L26.8842 21.1009ZM27.9977 21.6753L28.4821 20.8012L29.1143 21.1542L29.0299 21.3063L28.5742 21.0515L28.4713 21.2382L28.888 21.4706L28.8049 21.6201L28.3882 21.3878L28.2636 21.6124L28.741 21.8788L28.6515 22.0405L27.9977 21.6753ZM29.1219 21.9853L29.2952 22.0899C29.2734 22.1406 29.2715 22.1875 29.2894 22.2292C29.3073 22.2709 29.3463 22.3101 29.4064 22.346C29.4575 22.3774 29.501 22.3916 29.538 22.3884C29.5751 22.3864 29.6039 22.3672 29.6256 22.3312C29.6563 22.2792 29.6077 22.1913 29.4799 22.0675L29.4754 22.063C29.4722 22.0598 29.4671 22.0546 29.4601 22.0482C29.3904 21.9821 29.3456 21.9282 29.3252 21.8858C29.306 21.8486 29.299 21.8082 29.3028 21.7658C29.3067 21.7234 29.322 21.6804 29.3488 21.6355C29.3987 21.5521 29.4652 21.5059 29.5483 21.495C29.6313 21.4853 29.7266 21.5123 29.8327 21.5765C29.9324 21.6368 29.9963 21.708 30.0238 21.7889C30.0519 21.8704 30.041 21.9551 29.9931 22.0431L29.8244 21.941C29.8461 21.8974 29.8493 21.8563 29.8333 21.8178C29.818 21.7786 29.7835 21.7427 29.7311 21.7113C29.685 21.683 29.6441 21.6708 29.6083 21.6734C29.5725 21.6766 29.5451 21.6946 29.5246 21.7279C29.4971 21.7735 29.5259 21.8364 29.609 21.9179C29.6313 21.9397 29.6492 21.9571 29.6614 21.9693C29.7144 22.0232 29.7509 22.0623 29.772 22.0867C29.7924 22.1117 29.809 22.1348 29.8218 22.1579C29.8448 22.1984 29.8557 22.2395 29.8538 22.2818C29.8519 22.3248 29.8378 22.3685 29.811 22.4127C29.7573 22.502 29.6863 22.5527 29.5968 22.5655C29.5074 22.5783 29.4083 22.552 29.2996 22.4859C29.1922 22.4211 29.1226 22.3454 29.0919 22.2581C29.0612 22.1714 29.0708 22.0803 29.1219 21.9853ZM30.1714 22.6444L30.3389 22.7587C30.3146 22.8081 30.3108 22.8543 30.3268 22.8973C30.3421 22.9397 30.3792 22.9807 30.4373 23.0199C30.4865 23.0533 30.5294 23.07 30.5664 23.0693C30.6035 23.0687 30.6335 23.0513 30.6566 23.0167C30.6904 22.966 30.6463 22.8761 30.5249 22.7452C30.5236 22.7439 30.5217 22.742 30.5211 22.7407C30.5172 22.7375 30.5127 22.7324 30.5064 22.7247C30.4405 22.6553 30.3983 22.5995 30.3798 22.5559C30.3632 22.518 30.3581 22.4769 30.3638 22.4352C30.3702 22.3928 30.3875 22.3505 30.4169 22.3075C30.4712 22.2266 30.5402 22.1836 30.6233 22.1778C30.7071 22.1721 30.8004 22.2042 30.9033 22.2741C30.9998 22.3396 31.0592 22.4134 31.0829 22.4962C31.1065 22.579 31.0918 22.6624 31.0388 22.7478L30.8752 22.6374C30.8994 22.595 30.9046 22.5539 30.8911 22.5141C30.8777 22.4744 30.8451 22.4371 30.7946 22.4025C30.7499 22.3723 30.7096 22.3575 30.6738 22.3588C30.638 22.3601 30.6093 22.3768 30.5875 22.4089C30.5581 22.4525 30.5831 22.5174 30.6617 22.6027C30.6834 22.6258 30.7 22.6444 30.7115 22.6573C30.7614 22.7131 30.7959 22.7548 30.8157 22.7799C30.8349 22.8055 30.8502 22.8306 30.8617 22.8537C30.8828 22.8954 30.8911 22.9371 30.8873 22.9795C30.8835 23.0218 30.8668 23.0648 30.8374 23.1078C30.7799 23.1938 30.7058 23.2413 30.6157 23.249C30.5255 23.2574 30.4284 23.2259 30.3229 23.154C30.2194 23.0834 30.1542 23.0038 30.128 22.9159C30.1011 22.8273 30.1158 22.7369 30.1714 22.6444ZM31.4376 23.319C31.3711 23.4069 31.3392 23.4903 31.3417 23.568C31.3437 23.6463 31.3801 23.7118 31.4498 23.765C31.5201 23.8183 31.5936 23.8356 31.6696 23.817C31.745 23.7984 31.816 23.7445 31.8825 23.6566C31.9483 23.5693 31.9803 23.4858 31.9777 23.4075C31.9745 23.3292 31.9381 23.2631 31.8678 23.2099C31.7981 23.1566 31.7252 23.1399 31.6498 23.1592C31.5744 23.1778 31.5034 23.231 31.4376 23.319ZM31.2708 23.1925C31.3679 23.0642 31.4798 22.9884 31.6063 22.9653C31.7335 22.9429 31.8563 22.9769 31.9751 23.0667C32.094 23.1572 32.1599 23.2663 32.1733 23.396C32.1861 23.525 32.1445 23.654 32.048 23.7824C31.9509 23.9114 31.8384 23.9871 31.7112 24.0089C31.584 24.0314 31.4606 23.998 31.3424 23.9081C31.2235 23.8177 31.1577 23.7079 31.1449 23.5789C31.1321 23.4505 31.1736 23.3215 31.2708 23.1925Z" fill="#00923F"/>
</g>
</svg>
