<svg width="32" height="32" viewBox="0 0 32 32" fill="none" xmlns="http://www.w3.org/2000/svg">
<path d="M17.1915 15.183H14.8153C13.8281 15.183 13.0247 14.3796 13.0247 13.3923C13.0247 12.4051 13.8281 11.6017 14.8153 11.6017H19.0093C19.4587 11.6017 19.8264 11.234 19.8264 10.7847C19.8264 10.3353 19.4587 9.96765 19.0093 9.96765H16.8238V8.29957C16.8238 7.8502 16.4562 7.48254 16.0068 7.48254C15.5574 7.48254 15.1898 7.8502 15.1898 8.29957V9.96765H14.8153C12.9293 9.96765 11.3906 11.5064 11.3906 13.3923C11.3906 15.2783 12.9293 16.817 14.8153 16.817H17.1915C18.1787 16.817 18.9821 17.6204 18.9821 18.6076C18.9821 19.5949 18.1787 20.3983 17.1915 20.3983H12.9225C12.4732 20.3983 12.1055 20.7659 12.1055 21.2153C12.1055 21.6647 12.4732 22.0323 12.9225 22.0323H15.183V23.7345C15.183 24.1838 15.5506 24.5515 16 24.5515C16.4493 24.5515 16.817 24.1838 16.817 23.7345V22.0323H17.2119C17.2187 22.0323 17.2255 22.0323 17.2323 22.0323C19.0979 22.0051 20.6094 20.48 20.6094 18.6076C20.6094 16.7149 19.0774 15.183 17.1915 15.183Z" fill="white"/>
<path d="M27.3157 4.68426C24.2928 1.66128 20.2757 0 16 0C11.7243 0 7.70723 1.66128 4.68426 4.68426C1.66128 7.70723 0 11.7243 0 16C0 20.2757 1.66128 24.2928 4.68426 27.3157C7.70723 30.3387 11.7243 32 16 32C20.2757 32 24.2928 30.3387 27.3157 27.3157C30.3387 24.2928 32 20.2757 32 16C32 11.7243 30.3387 7.70723 27.3157 4.68426ZM16 30.366C8.0817 30.366 1.63404 23.9183 1.63404 16C1.63404 8.0817 8.0817 1.63404 16 1.63404C23.9183 1.63404 30.366 8.0817 30.366 16C30.366 23.9183 23.9183 30.366 16 30.366Z" fill="white"/>
</svg>
