<svg width="139" height="114" viewBox="0 0 139 114" fill="none" xmlns="http://www.w3.org/2000/svg">
<g clip-path="url(#clip0_102_5)">
<path d="M70.1154 56.2847L68.4398 53.5183H25.7162C24.018 53.518 22.3363 53.8509 20.7673 54.4979C19.1983 55.1448 17.7727 56.0932 16.5719 57.2889C15.371 58.4845 14.4185 59.904 13.7688 61.4663C13.119 63.0285 12.7847 64.7029 12.785 66.3939V113.469H39.6182V76.1632H58.352L82.7805 113.469H104.748L70.1154 56.2847Z" fill="url(#paint0_linear_102_5)"/>
<path d="M79.076 34.6853L94.6902 9.86242C94.6902 9.86242 91.5361 0 71.9432 0H17.2511L0 24.2668H65.8036C77.569 24.2749 79.076 34.6853 79.076 34.6853Z" fill="url(#paint1_linear_102_5)"/>
<path d="M98.6425 53.6417L135.606 0H114.797C111.853 6.00858e-05 108.957 0.746593 106.383 2.16922C103.809 3.59185 101.642 5.64372 100.085 8.13139L71.9433 53.0977L108.578 113.469H139.012L98.6425 53.6417Z" fill="url(#paint2_linear_102_5)"/>
</g>
<defs>
<linearGradient id="paint0_linear_102_5" x1="104.748" y1="83.4938" x2="12.785" y2="83.4938" gradientUnits="userSpaceOnUse">
<stop stop-color="#A804A3"/>
<stop offset="1" stop-color="#FF00F9"/>
</linearGradient>
<linearGradient id="paint1_linear_102_5" x1="94.6841" y1="17.3426" x2="0" y2="17.3426" gradientUnits="userSpaceOnUse">
<stop stop-color="#A804A3"/>
<stop offset="1" stop-color="#FF00F9"/>
</linearGradient>
<linearGradient id="paint2_linear_102_5" x1="139.002" y1="56.7357" x2="71.9331" y2="56.7357" gradientUnits="userSpaceOnUse">
<stop stop-color="#A804A3"/>
<stop offset="1" stop-color="#FF00F9"/>
</linearGradient>
<clipPath id="clip0_102_5">
<rect width="139" height="113.469" fill="white"/>
</clipPath>
</defs>
</svg>
