<svg width="31" height="24" viewBox="0 0 31 24" fill="none" xmlns="http://www.w3.org/2000/svg">
<path d="M19.8644 0C22.1076 0.388577 24.2532 1.071 26.2599 2.00999C29.7686 7.25033 31.5119 13.1607 30.8682 19.9776C28.1837 21.9851 25.5797 23.203 23.0195 24C22.3855 23.1308 21.8247 22.2042 21.3395 21.2329C22.2636 20.8817 23.1511 20.4483 23.9899 19.9427C23.7704 19.7784 23.5535 19.6065 23.3413 19.4296C18.3015 21.8157 12.7593 21.8157 7.65849 19.4296C7.44882 19.6065 7.2318 19.7784 7.00994 19.9427C7.84624 20.4459 8.73131 20.8792 9.65541 21.2304C9.1702 22.2042 8.60698 23.1283 7.97546 23.9975C5.41775 23.2005 2.81613 21.9826 0.131611 19.9776C-0.416996 14.0972 0.680216 8.13203 4.72772 2.01497C6.7344 1.07351 8.88251 0.388577 11.1281 0C11.4061 0.498142 11.7353 1.16815 11.9571 1.70115C14.2979 1.34249 16.6605 1.34249 19.0451 1.70115C19.267 1.16815 19.5889 0.498142 19.8644 0ZM10.3503 10.0175C8.7923 10.0175 7.56339 11.4496 7.56339 13.1906C7.56339 14.9315 8.81911 16.3612 10.3503 16.3612C11.9084 16.3612 13.1397 14.9315 13.1373 13.1906C13.1641 11.4471 11.9084 10.0175 10.3503 10.0175ZM20.6495 10.0175C19.0914 10.0175 17.8626 11.4496 17.8626 13.1906C17.8626 14.9315 19.1183 16.3612 20.6495 16.3612C22.2075 16.3612 23.4364 14.9315 23.4364 13.1906C23.4633 11.4471 22.2075 10.0175 20.6495 10.0175Z" fill="white"/>
</svg>
