<svg width="44" height="44" viewBox="0 0 44 44" fill="none" xmlns="http://www.w3.org/2000/svg">
<mask id="mask0_1_314" style="mask-type:alpha" maskUnits="userSpaceOnUse" x="0" y="0" width="44" height="45">
<circle cx="22" cy="22.0001" r="22" fill="#D9D9D9"/>
</mask>
<g mask="url(#mask0_1_314)">
<path d="M-6.2179 -0.463013H50.6695C52.6032 -0.463013 54.1779 1.11172 54.1779 3.04541V40.4801C54.1779 42.4138 52.6032 43.9886 50.6695 43.9886H-6.2179C-8.15158 44.0001 -9.72632 42.4254 -9.72632 40.4917V3.04541C-9.72632 1.11172 -8.15158 -0.463013 -6.2179 -0.463013Z" fill="#B22234"/>
<path d="M-9.70316 2.698H54.1779C54.1895 2.81379 54.201 2.92958 54.201 3.05695V6.46116H-9.72632V3.04537C-9.72632 2.92958 -9.71474 2.81379 -9.70316 2.698ZM54.1895 9.57589V13.3275H-9.72632V9.57589H54.1895ZM54.1895 16.4538V20.2054H-9.72632V16.4538H54.1895ZM54.1895 23.3317V27.0833H-9.72632V23.3317H54.1895ZM54.1895 30.2096V33.9612H-9.72632V30.2096H54.1895ZM54.1895 37.0875V40.4801C54.1895 40.5959 54.1779 40.7233 54.1663 40.839H-9.70316C-9.71474 40.7348 -9.72632 40.6075 -9.72632 40.4917V37.099H54.1895V37.0875Z" fill="white"/>
<path d="M14.3579 -0.463013V23.4822H-9.72632V3.04541C-9.72632 1.11172 -8.15158 -0.463013 -6.2179 -0.463013H14.3579Z" fill="#3C3B6E"/>
<path d="M0.196848 0.440186L0.995796 2.92966L-1.11157 1.38966H1.50527L-0.613678 2.92966L0.196848 0.440186Z" fill="white"/>
<path d="M0.196848 5.25696L0.995796 7.74643L-1.11157 6.20643H1.50527L-0.613678 7.74643L0.196848 5.25696Z" fill="white"/>
<path d="M0.196848 10.0739L0.995796 12.5633L-1.11157 11.0233H1.50527L-0.613678 12.5633L0.196848 10.0739Z" fill="white"/>
<path d="M0.196848 14.8906L0.995796 17.3801L-1.11157 15.8401H1.50527L-0.613678 17.3801L0.196848 14.8906Z" fill="white"/>
<path d="M0.196848 19.7075L0.995796 22.197L-1.11157 20.657H1.50527L-0.613678 22.197L0.196848 19.7075Z" fill="white"/>
<path d="M3.02217 2.84851L3.83269 5.33798L1.71375 3.79798H4.33059L2.21164 5.33798L3.02217 2.84851Z" fill="white"/>
<path d="M3.02217 7.66541L3.83269 10.1549L1.71375 8.61488H4.33059L2.21164 10.1549L3.02217 7.66541Z" fill="white"/>
<path d="M3.02217 12.4822L3.83269 14.9717L1.71375 13.4317H4.33059L2.21164 14.9717L3.02217 12.4822Z" fill="white"/>
<path d="M3.02217 17.2991L3.83269 19.7885L1.71375 18.2485H4.33059L2.21164 19.7885L3.02217 17.2991Z" fill="white"/>
<path d="M5.85896 0.440186L6.66948 2.92966L4.55054 1.38966H7.16738L5.04843 2.92966L5.85896 0.440186Z" fill="white"/>
<path d="M5.85896 5.25696L6.66948 7.74643L4.55054 6.20643H7.16738L5.04843 7.74643L5.85896 5.25696Z" fill="white"/>
<path d="M5.85896 10.0739L6.66948 12.5633L4.55054 11.0233H7.16738L5.04843 12.5633L5.85896 10.0739Z" fill="white"/>
<path d="M5.85896 14.8906L6.66948 17.3801L4.55054 15.8401H7.16738L5.04843 17.3801L5.85896 14.8906Z" fill="white"/>
<path d="M5.85896 19.7075L6.66948 22.197L4.55054 20.657H7.16738L5.04843 22.197L5.85896 19.7075Z" fill="white"/>
<path d="M8.68427 2.84851L9.4948 5.33798L7.37585 3.79798H9.9927L7.88533 5.33798L8.68427 2.84851Z" fill="white"/>
<path d="M8.68427 7.66541L9.4948 10.1549L7.37585 8.61488H9.9927L7.88533 10.1549L8.68427 7.66541Z" fill="white"/>
<path d="M8.68427 12.4822L9.4948 14.9717L7.37585 13.4317H9.9927L7.88533 14.9717L8.68427 12.4822Z" fill="white"/>
<path d="M8.68427 17.2991L9.4948 19.7885L7.37585 18.2485H9.9927L7.88533 19.7885L8.68427 17.2991Z" fill="white"/>
<path d="M11.5211 0.440186L12.3316 2.92966L10.2126 1.38966H12.8295L10.7105 2.92966L11.5211 0.440186Z" fill="white"/>
<path d="M11.5211 5.25696L12.3316 7.74643L10.2126 6.20643H12.8295L10.7105 7.74643L11.5211 5.25696Z" fill="white"/>
<path d="M11.5211 10.0739L12.3316 12.5633L10.2126 11.0233H12.8295L10.7105 12.5633L11.5211 10.0739Z" fill="white"/>
<path d="M11.5211 14.8906L12.3316 17.3801L10.2126 15.8401H12.8295L10.7105 17.3801L11.5211 14.8906Z" fill="white"/>
<path d="M11.5211 19.7075L12.3316 22.197L10.2126 20.657H12.8295L10.7105 22.197L11.5211 19.7075Z" fill="white"/>
</g>
</svg>
