<svg width="50" height="50" viewBox="0 0 50 50" fill="none" xmlns="http://www.w3.org/2000/svg">
<mask id="mask0_32_95" style="mask-type:alpha" maskUnits="userSpaceOnUse" x="0" y="0" width="50" height="50">
<path d="M14.5004 0.735352C1.05363 0.735352 6.10352e-05 1.78769 6.10352e-05 15.2357V35.4997C6.10352e-05 48.9465 1.05363 50.0001 14.5004 50.0001H34.7644C48.2112 50.0001 49.2648 48.9477 49.2648 35.4997V15.2357C49.2648 1.78769 48.2124 0.735352 34.7644 0.735352H14.5004ZM11.2915 5.66182H37.9733C43.8765 5.66182 44.3383 6.12364 44.3383 12.0268V38.7086C44.3383 44.6118 43.8752 45.0736 37.9733 45.0736H11.2915C5.38835 45.0736 4.92653 44.6105 4.92653 38.7086V12.0268C4.92653 6.12364 5.38835 5.66182 11.2915 5.66182ZM25.5441 10.2106V30.6574C25.5441 33.468 23.1003 34.92 21.3465 34.92C20.025 34.92 17.019 33.8838 17.019 30.6237C17.019 27.2011 19.8235 26.3275 21.3778 26.3275C22.283 26.3275 22.6383 26.5223 22.6383 26.5223V21.0667C22.6383 21.0667 21.96 20.9656 21.1853 20.9656C15.6196 20.9656 11.6571 25.4706 11.6571 30.6237C11.6571 34.9775 15.0619 40.2481 21.2815 40.2481C27.9064 40.2481 30.9396 34.723 30.9396 30.655V20.5134C30.9396 20.5134 33.8922 22.5797 37.8507 22.5797V17.4127C33.3097 17.0888 30.8823 14.0385 30.7135 10.2106H25.5441Z" fill="black"/>
</mask>
<g mask="url(#mask0_32_95)">
<rect x="7.64459" y="8.37988" width="33.9757" height="33.9757" fill="white"/>
</g>
<circle cx="25" cy="25" r="24" stroke="white" stroke-width="2"/>
</svg>
