<svg width="50" height="50" viewBox="0 0 50 50" fill="none" xmlns="http://www.w3.org/2000/svg">
<circle cx="25" cy="25" r="24" stroke="white" stroke-width="2"/>
<path d="M38.8848 17.7621C38.613 16.2461 37.3175 15.142 35.8141 14.7974C33.5644 14.3154 29.4008 13.9707 24.896 13.9707C20.3939 13.9707 16.1636 14.3154 13.9112 14.7974C12.4105 15.142 11.1124 16.176 10.8405 17.7621C10.566 19.4854 10.2941 21.8981 10.2941 25.0001C10.2941 28.1021 10.566 30.5148 10.9071 32.2382C11.1817 33.7542 12.4772 34.8582 13.9779 35.2029C16.3662 35.6849 20.4605 36.0295 24.9653 36.0295C29.4701 36.0295 33.5644 35.6849 35.9527 35.2029C37.4534 34.8582 38.7489 33.8242 39.0234 32.2382C39.2953 30.5148 39.6365 28.0321 39.7058 25.0001C39.5672 21.8981 39.226 19.4854 38.8848 17.7621ZM21.2122 29.8255V20.1747L29.5367 25.0001L21.2122 29.8255Z" fill="white"/>
</svg>
