<svg width="50" height="50" viewBox="0 0 50 50" fill="none" xmlns="http://www.w3.org/2000/svg">
<circle cx="25" cy="25" r="24" stroke="white" stroke-width="2"/>
<path fill-rule="evenodd" clip-rule="evenodd" d="M25 8.08813C15.2516 8.08813 7.35297 15.9868 7.35297 25.7352C7.35297 33.5305 12.4081 40.1481 19.4221 42.4804C20.3068 42.6412 20.6285 42.1012 20.6285 41.6302C20.6285 41.2108 20.6112 40.1022 20.6055 38.6316C15.694 39.6943 14.66 36.2648 14.66 36.2648C13.8557 34.2255 12.7011 33.6798 12.7011 33.6798C11.0984 32.5884 12.8217 32.6113 12.8217 32.6113C14.591 32.7377 15.5216 34.4266 15.5216 34.4266C17.0956 37.1265 19.6519 36.3453 20.6572 35.8972C20.818 34.754 21.2776 33.9785 21.7774 33.5362C17.8596 33.0939 13.7408 31.5773 13.7408 24.8161C13.7408 22.8859 14.4302 21.3119 15.5561 20.0769C15.378 19.6346 14.7691 17.8365 15.7284 15.4066C15.7284 15.4066 17.2105 14.9356 20.5825 17.2161C21.9899 16.8255 23.5007 16.6302 25 16.6244C26.4993 16.6302 28.0101 16.8255 29.4175 17.2161C32.7895 14.9356 34.2659 15.4066 34.2659 15.4066C35.231 17.8365 34.6278 19.6346 34.444 20.0769C35.5756 21.3119 36.2535 22.8859 36.2535 24.8161C36.2535 31.5946 32.1289 33.0824 28.1997 33.5247C28.8316 34.0647 29.3946 35.1447 29.3946 36.7876C29.3946 39.1486 29.3773 41.05 29.3773 41.6302C29.3773 42.1012 29.6933 42.6527 30.5894 42.4804C37.5977 40.1424 42.6471 33.5305 42.6471 25.7352C42.6471 15.9868 34.7484 8.08813 25 8.08813Z" fill="white"/>
</svg>
