<svg width="50" height="50" viewBox="0 0 50 50" fill="none" xmlns="http://www.w3.org/2000/svg">
<circle cx="25" cy="25" r="24" stroke="white" stroke-width="2"/>
<path d="M29.8644 13C32.1076 13.3886 34.2532 14.071 36.2599 15.01C39.7686 20.2503 41.5119 26.1607 40.8682 32.9776C38.1837 34.9851 35.5797 36.203 33.0195 37C32.3855 36.1308 31.8247 35.2042 31.3395 34.2329C32.2636 33.8817 33.1511 33.4483 33.9899 32.9427C33.7704 32.7784 33.5535 32.6065 33.3413 32.4296C28.3015 34.8157 22.7593 34.8157 17.6585 32.4296C17.4488 32.6065 17.2318 32.7784 17.0099 32.9427C17.8462 33.4459 18.7313 33.8792 19.6554 34.2304C19.1702 35.2042 18.607 36.1283 17.9755 36.9975C15.4177 36.2005 12.8161 34.9826 10.1316 32.9776C9.583 27.0972 10.6802 21.132 14.7277 15.015C16.7344 14.0735 18.8825 13.3886 21.1281 13C21.4061 13.4981 21.7353 14.1682 21.9571 14.7011C24.2979 14.3425 26.6605 14.3425 29.0451 14.7011C29.267 14.1682 29.5889 13.4981 29.8644 13ZM20.3503 23.0175C18.7923 23.0175 17.5634 24.4496 17.5634 26.1906C17.5634 27.9315 18.8191 29.3612 20.3503 29.3612C21.9084 29.3612 23.1397 27.9315 23.1373 26.1906C23.1641 24.4471 21.9084 23.0175 20.3503 23.0175ZM30.6495 23.0175C29.0914 23.0175 27.8626 24.4496 27.8626 26.1906C27.8626 27.9315 29.1183 29.3612 30.6495 29.3612C32.2075 29.3612 33.4364 27.9315 33.4364 26.1906C33.4633 24.4471 32.2075 23.0175 30.6495 23.0175Z" fill="white"/>
</svg>
