<svg width="50" height="50" viewBox="0 0 50 50" fill="none" xmlns="http://www.w3.org/2000/svg">
<circle cx="25" cy="25" r="24" stroke="white" stroke-width="2"/>
<path d="M10 40L12.1188 32.2962C10.8114 30.0413 10.1243 27.485 10.1256 24.8637C10.1294 16.6687 16.8299 10 25.0628 10C29.058 10.0013 32.8083 11.55 35.6292 14.36C38.4489 17.17 40.0013 20.905 40 24.8775C39.9962 33.0738 33.2957 39.7425 25.0628 39.7425C22.5634 39.7413 20.1005 39.1175 17.9189 37.9325L10 40ZM18.2856 35.2413C20.3906 36.485 22.4001 37.23 25.0578 37.2313C31.9003 37.2313 37.4743 31.6887 37.478 24.875C37.4805 18.0475 31.9329 12.5125 25.0678 12.51C18.2203 12.51 12.6501 18.0525 12.6476 24.865C12.6463 27.6462 13.4652 29.7287 14.8405 31.9075L13.5858 36.4675L18.2856 35.2413ZM32.5873 28.4113C32.4943 28.2563 32.2457 28.1637 31.8714 27.9775C31.4984 27.7913 29.6634 26.8925 29.3205 26.7687C28.9789 26.645 28.7302 26.5825 28.4803 26.955C28.2316 27.3263 27.5157 28.1637 27.2984 28.4113C27.0811 28.6588 26.8626 28.69 26.4896 28.5037C26.1166 28.3175 24.9133 27.9263 23.4878 26.66C22.3788 25.675 21.629 24.4587 21.4117 24.0863C21.1944 23.715 21.3891 23.5138 21.575 23.3288C21.7433 23.1625 21.948 22.895 22.1351 22.6775C22.3248 22.4625 22.3863 22.3075 22.5119 22.0588C22.6363 21.8113 22.5747 21.5938 22.4805 21.4075C22.3863 21.2225 21.6403 19.3938 21.3301 18.65C21.0261 17.9262 20.7184 18.0237 20.4898 18.0125L19.7739 18C19.5252 18 19.1208 18.0925 18.7792 18.465C18.4376 18.8375 17.473 19.735 17.473 21.5638C17.473 23.3925 18.8106 25.1587 18.9965 25.4062C19.1836 25.6537 21.6277 29.4062 25.3718 31.015C26.2622 31.3975 26.958 31.6262 27.4994 31.7975C28.3936 32.08 29.2075 32.04 29.8505 31.945C30.5677 31.8387 32.0585 31.0462 32.37 30.1787C32.6815 29.31 32.6815 28.5662 32.5873 28.4113Z" fill="white"/>
</svg>
