<svg width="98" height="80" viewBox="0 0 98 80" fill="none" xmlns="http://www.w3.org/2000/svg">
<g clip-path="url(#clip0_45_16)">
<path d="M49.4339 39.6827L48.2525 37.7323H18.1309C16.9336 37.7321 15.7479 37.9668 14.6417 38.4229C13.5355 38.8791 12.5304 39.5477 11.6838 40.3907C10.8371 41.2337 10.1656 42.2345 9.70749 43.3359C9.24939 44.4373 9.0137 45.6179 9.01389 46.81V79.9999H27.9323V53.6978H41.1402L58.3633 79.9999H73.8508L49.4339 39.6827Z" fill="url(#paint0_linear_45_16)"/>
<path d="M55.7515 24.4544L66.76 6.95336C66.76 6.95336 64.5362 0 50.7226 0H12.1627L3.05176e-05 17.1089H46.3939C54.689 17.1146 55.7515 24.4544 55.7515 24.4544Z" fill="url(#paint1_linear_45_16)"/>
<path d="M69.5465 37.8193L95.6073 0H80.9359C78.8603 4.23626e-05 76.8189 0.526375 75.0041 1.52938C73.1894 2.53239 71.661 3.97902 70.5632 5.73292L50.7226 37.4358L76.5514 80H98.0086L69.5465 37.8193Z" fill="url(#paint2_linear_45_16)"/>
</g>
<defs>
<linearGradient id="paint0_linear_45_16" x1="73.8508" y1="58.8661" x2="9.01389" y2="58.8661" gradientUnits="userSpaceOnUse">
<stop stop-color="white"/>
<stop offset="1" stop-color="white"/>
</linearGradient>
<linearGradient id="paint1_linear_45_16" x1="66.7557" y1="12.2272" x2="3.05176e-05" y2="12.2272" gradientUnits="userSpaceOnUse">
<stop stop-color="#FEC9FC"/>
<stop offset="1" stop-color="white"/>
</linearGradient>
<linearGradient id="paint2_linear_45_16" x1="98.0014" y1="40.0007" x2="50.7154" y2="40.0007" gradientUnits="userSpaceOnUse">
<stop stop-color="white"/>
<stop offset="1" stop-color="#FCCDFA"/>
</linearGradient>
<clipPath id="clip0_45_16">
<rect width="98" height="80" fill="white"/>
</clipPath>
</defs>
</svg>
